<svg width="25" height="25" viewBox="0 0 25 25" fill="none" xmlns="http://www.w3.org/2000/svg">
<path d="M13.2572 3.84068C13.3512 3.74123 13.4247 3.62425 13.4735 3.4964C13.5222 3.36856 13.5453 3.23237 13.5415 3.09559C13.5376 2.95882 13.5068 2.82415 13.4509 2.69927C13.395 2.57439 13.315 2.46174 13.2156 2.36776C13.1161 2.27379 12.9991 2.20032 12.8713 2.15155C12.7435 2.10279 12.6073 2.07968 12.4705 2.08355C12.3337 2.08742 12.199 2.11819 12.0742 2.1741C11.9493 2.23002 11.8366 2.30998 11.7427 2.40943L2.88849 11.7844C2.70564 11.9778 2.60376 12.2339 2.60376 12.5001C2.60376 12.7662 2.70564 13.0223 2.88849 13.2157L11.7427 22.5917C11.836 22.6933 11.9486 22.7754 12.074 22.8331C12.1993 22.8909 12.3349 22.9231 12.4728 22.928C12.6107 22.9329 12.7482 22.9104 12.8773 22.8617C13.0065 22.813 13.1246 22.7391 13.2249 22.6444C13.3253 22.5496 13.4058 22.4359 13.4618 22.3098C13.5178 22.1837 13.5482 22.0477 13.5512 21.9097C13.5542 21.7717 13.5298 21.6346 13.4793 21.5061C13.4288 21.3777 13.3534 21.2605 13.2572 21.1615L5.07807 12.5001L13.2572 3.84068Z" fill="#0D0D0D"/>
</svg>
