<svg width="25" height="26" viewBox="0 0 25 26" fill="none" xmlns="http://www.w3.org/2000/svg">
<path d="M4.17419 13C4.17419 13.2763 4.28394 13.5413 4.47929 13.7366C4.67464 13.932 4.93959 14.0417 5.21586 14.0417C5.49213 14.0417 5.75708 13.932 5.95243 13.7366C6.14778 13.5413 6.25753 13.2763 6.25753 13C6.25753 12.7238 6.14778 12.4588 5.95243 12.2635C5.75708 12.0681 5.49213 11.9584 5.21586 11.9584C4.93959 11.9584 4.67464 12.0681 4.47929 12.2635C4.28394 12.4588 4.17419 12.7238 4.17419 13ZM11.4659 13C11.4659 13.2763 11.5756 13.5413 11.771 13.7366C11.9663 13.932 12.2313 14.0417 12.5075 14.0417C12.7838 14.0417 13.0487 13.932 13.2441 13.7366C13.4394 13.5413 13.5492 13.2763 13.5492 13C13.5492 12.7238 13.4394 12.4588 13.2441 12.2635C13.0487 12.0681 12.7838 11.9584 12.5075 11.9584C12.2313 11.9584 11.9663 12.0681 11.771 12.2635C11.5756 12.4588 11.4659 12.7238 11.4659 13ZM18.7575 13C18.7575 13.2763 18.8673 13.5413 19.0626 13.7366C19.258 13.932 19.5229 14.0417 19.7992 14.0417C20.0755 14.0417 20.3404 13.932 20.5358 13.7366C20.7311 13.5413 20.8409 13.2763 20.8409 13C20.8409 12.7238 20.7311 12.4588 20.5358 12.2635C20.3404 12.0681 20.0755 11.9584 19.7992 11.9584C19.5229 11.9584 19.258 12.0681 19.0626 12.2635C18.8673 12.4588 18.7575 12.7238 18.7575 13Z" stroke="#0D0D0D" stroke-width="2.08333" stroke-linecap="round" stroke-linejoin="round"/>
</svg>
