<svg width="25" height="25" viewBox="0 0 25 25" fill="none" xmlns="http://www.w3.org/2000/svg">
<path d="M6.25 6.45833C6.25 5.29167 6.25 4.70833 6.47708 4.2625C6.67682 3.87051 6.99551 3.55182 7.3875 3.35208C7.83333 3.125 8.41667 3.125 9.58333 3.125H15.4167C16.5833 3.125 17.1667 3.125 17.6125 3.35208C18.0045 3.55182 18.3232 3.87051 18.5229 4.2625C18.75 4.70833 18.75 5.29167 18.75 6.45833V20.3177C18.75 20.824 18.75 21.0771 18.6448 21.2156C18.5993 21.2759 18.5413 21.3255 18.4748 21.3611C18.4082 21.3968 18.3347 21.4175 18.2594 21.4219C18.0854 21.4323 17.875 21.2917 17.4542 21.0115L12.5 17.7083L7.54583 21.0104C7.125 21.2917 6.91458 21.4323 6.73958 21.4219C6.66441 21.4173 6.59112 21.3965 6.52476 21.3609C6.4584 21.3253 6.40056 21.2758 6.35521 21.2156C6.25 21.0771 6.25 20.824 6.25 20.3177V6.45833Z" fill="#0D0D0D" stroke="#0D0D0D" stroke-width="1.5625" stroke-linecap="round" stroke-linejoin="round"/>
</svg>
