<svg width="25" height="25" viewBox="0 0 25 25" fill="none" xmlns="http://www.w3.org/2000/svg">
<path fill-rule="evenodd" clip-rule="evenodd" d="M13.2364 2.38854C13.041 2.19326 12.7761 2.08356 12.4999 2.08356C12.2237 2.08356 11.9588 2.19326 11.7634 2.38854L4.47178 9.68021L2.38844 11.7635C2.28895 11.8596 2.2096 11.9746 2.155 12.1017C2.10041 12.2288 2.07168 12.3654 2.07047 12.5037C2.06927 12.6421 2.09563 12.7792 2.148 12.9072C2.20038 13.0353 2.27773 13.1516 2.37553 13.2494C2.47334 13.3472 2.58964 13.4245 2.71766 13.4769C2.84567 13.5293 2.98284 13.5556 3.12115 13.5544C3.25946 13.5532 3.39615 13.5245 3.52324 13.4699C3.65033 13.4153 3.76527 13.3359 3.86136 13.2365L4.16657 12.9313V19.7917C4.16657 20.6205 4.49581 21.4153 5.08186 22.0014C5.66791 22.5874 6.46277 22.9167 7.29157 22.9167H17.7082C18.537 22.9167 19.3319 22.5874 19.9179 22.0014C20.504 21.4153 20.8332 20.6205 20.8332 19.7917V12.9313L21.1384 13.2365C21.3349 13.4262 21.598 13.5312 21.8712 13.5288C22.1443 13.5265 22.4055 13.4169 22.5987 13.2238C22.7918 13.0306 22.9014 12.7694 22.9037 12.4963C22.9061 12.2231 22.8011 11.96 22.6114 11.7635L13.2364 2.38854Z" fill="#686D76"/>
</svg>
