<svg width="60" height="60" viewBox="0 0 60 60" fill="none" xmlns="http://www.w3.org/2000/svg">
<path d="M25 27.5H45M25 35H35M25 20H45M50 55H21C13.55 55 7.5 48.95 7.5 41.5V12.5M21 7.5H49C49.7879 7.5 50.5681 7.65519 51.2961 7.95672C52.0241 8.25825 52.6855 8.70021 53.2426 9.25736C53.7998 9.81451 54.2417 10.4759 54.5433 11.2039C54.8448 11.9319 55 12.7121 55 13.5V41.5C55 43.0913 54.3679 44.6174 53.2426 45.7426C52.1174 46.8679 50.5913 47.5 49 47.5H21C20.2121 47.5 19.4319 47.3448 18.7039 47.0433C17.9759 46.7417 17.3145 46.2998 16.7574 45.7426C15.6321 44.6174 15 43.0913 15 41.5V13.5C15 12.7121 15.1552 11.9319 15.4567 11.2039C15.7583 10.4759 16.2002 9.81451 16.7574 9.25736C17.8826 8.13214 19.4087 7.5 21 7.5Z" stroke="#686D76" stroke-width="3.75" stroke-miterlimit="10" stroke-linecap="round" stroke-linejoin="round"/>
</svg>
