<svg width="20" height="20" viewBox="0 0 20 20" fill="none" xmlns="http://www.w3.org/2000/svg">
<path fill-rule="evenodd" clip-rule="evenodd" d="M8.94529 0.891296C7.58988 0.891412 6.25416 1.21566 5.04955 1.83699C3.84494 2.45832 2.80638 3.35871 2.02053 4.46305C1.23467 5.56739 0.724301 6.84364 0.532 8.18534C0.339698 9.52704 0.471041 10.8953 0.91507 12.1759C1.3591 13.4565 2.10294 14.6124 3.08453 15.547C4.06612 16.4817 5.257 17.1681 6.55781 17.5489C7.85861 17.9297 9.23163 17.9939 10.5623 17.7362C11.893 17.4785 13.1427 16.9063 14.2073 16.0673L17.8593 19.7193C18.0479 19.9015 18.3005 20.0022 18.5627 20C18.8249 19.9977 19.0757 19.8925 19.2611 19.7071C19.4465 19.5217 19.5517 19.2709 19.554 19.0087C19.5562 18.7465 19.4554 18.4939 19.2733 18.3053L15.6213 14.6533C16.6093 13.3999 17.2245 11.8937 17.3964 10.307C17.5683 8.72035 17.2901 7.11732 16.5935 5.68139C15.8969 4.24546 14.8102 3.03465 13.4576 2.18753C12.105 1.3404 10.5413 0.891189 8.94529 0.891296ZM2.44529 9.3913C2.44529 7.66739 3.13011 6.01409 4.3491 4.7951C5.56808 3.57612 7.22138 2.8913 8.94529 2.8913C10.6692 2.8913 12.3225 3.57612 13.5415 4.7951C14.7605 6.01409 15.4453 7.66739 15.4453 9.3913C15.4453 11.1152 14.7605 12.7685 13.5415 13.9875C12.3225 15.2065 10.6692 15.8913 8.94529 15.8913C7.22138 15.8913 5.56808 15.2065 4.3491 13.9875C3.13011 12.7685 2.44529 11.1152 2.44529 9.3913Z" fill="#686D76"/>
</svg>
